<svg xmlns="http://www.w3.org/2000/svg" width="96" height="96" direction="ltr" viewBox="15.022479000777054 704.2526072945038 123.25302849939692 92.08440194666105" stroke-linecap="round" stroke-linejoin="round" data-color-mode="light" class="tl-container tl-theme__force-sRGB tl-theme__light logo-svg" style="background-color: transparent;"><defs><style>
.logo-svg path {
  fill: currentColor;
  stroke: currentColor;
}
</style></defs><g transform="matrix(0.9877, -0.1564, 0.1564, 0.9877, 46.4358, 769.9914) scale(0.38554328942953175, 0.38554328942953175)" opacity="1"><path d="M5.3385,-11.7764 Q5.7192,-13.1789 5.8833,-14.2002 T6.1694,-16.3112 6.3155,-18.427 6.2778,-20.5845 6.1034,-22.8326 5.8069,-25.4892 5.6323,-27.3642 5.7574,-28.0138 6.0835,-28.5895 6.5763,-29.031 7.1842,-29.2919 7.8437,-29.3451 8.4856,-29.185 9.0427,-28.8282 9.4568,-28.3123 9.6845,-27.6911 9.7019,-27.0297 9.5072,-26.3974 9.1207,-25.8604 8.5831,-25.4749 7.9505,-25.2812 7.2891,-25.2997 6.6683,-25.5284 6.153,-25.9433 5.7972,-26.5011 5.6381,-27.1433 5.6924,-27.8026 5.9544,-28.4101 6.3967,-28.9022 6.9729,-29.2273 7.6227,-29.3513 8.2782,-29.2614 8.8706,-28.9668 9.338,-28.4986 9.6313,-27.9056 9.7294,-27.5853 9.9505,-25.9738 10.266,-23.1557 10.3976,-20.6674 10.3613,-18.163 10.1067,-15.7388 9.6892,-13.4191 9.169,-10.8763 8.7222,-9.0929 8.2715,-8.4662 7.6152,-8.0597 6.8533,-7.9352 6.1018,-8.1119 5.4752,-8.5626 5.0687,-9.2189 4.9443,-9.9808 4.9579,-10.374 5.3385,-11.7764 Z" stroke-width="1" transform="scale(2.5937424601)"/></g><g transform="matrix(0.9877, -0.1564, 0.1564, 0.9877, 44.5265, 769.2999) scale(0.38554328942953175, 0.38554328942953175)" opacity="1"><path d="M7.6175,-11.0283 Q8.2548,-12.1135 8.8813,-13.0643 T10.3334,-15.0191 12.2406,-17.036 14.6916,-19.0935 17.4852,-21.1283 20.1232,-22.9324 22.1886,-24.278 23.3426,-24.94 23.9729,-25.0968 24.6203,-25.0441 25.217,-24.7874 25.7004,-24.3537 26.0201,-23.7882 26.1425,-23.1504 26.0548,-22.5068 25.7662,-21.9249 25.3069,-21.4657 24.725,-21.1771 24.0814,-21.0895 23.4435,-21.212 22.8781,-21.5317 22.4445,-22.0152 22.1879,-22.6119 22.1352,-23.2592 22.2921,-23.8895 22.642,-24.4368 23.1483,-24.8436 23.758,-25.0675 24.4073,-25.085 25.0281,-24.8942 25.5556,-24.5152 25.9344,-23.9876 26.1249,-23.3666 26.1072,-22.7173 25.883,-22.1077 25.476,-21.6016 25.2312,-21.382 23.8567,-20.4889 21.173,-18.7109 18.5212,-16.8497 16.093,-14.995 14.2061,-13.3082 12.518,-11.3618 11.0408,-9.1132 10.1982,-7.7076 9.6011,-7.2363 8.8691,-7.0294 8.1136,-7.1184 7.4497,-7.4898 6.9784,-8.087 6.7716,-8.819 6.8607,-9.5745 6.9803,-9.9433 7.6175,-11.0283 Z" stroke-width="1" transform="scale(2.5937424601)"/></g><g transform="matrix(0.9877, -0.1564, 0.1564, 0.9877, 127.9247, 694.2088) scale(0.38554328942953175, 0.38554328942953175)" opacity="1"><path d="M-74.1919,48.9695 Q-75.5953,48.424 -76.6352,48.1249 T-78.7702,47.5454 -80.8866,47.0668 -82.9971,46.7195 -85.1398,46.463 -87.6213,46.2271 -89.3763,46.0176 -89.9877,45.7557 -90.4835,45.3122 -90.8117,44.7336 -90.938,44.0805 -90.8491,43.4213 -90.5544,42.825 -90.0847,42.354 -89.4892,42.0576 -88.8302,41.9669 -88.1768,42.0914 -87.5973,42.418 -87.1524,42.9125 -86.8888,43.5232 -86.8339,44.1861 -86.9936,44.8319 -87.3511,45.3928 -87.869,45.8102 -88.4931,46.0404 -89.158,46.0592 -89.7942,45.8648 -90.3349,45.4774 -90.7236,44.9376 -90.9196,44.3019 -90.9024,43.637 -90.6738,43.0123 -90.2577,42.4934 -89.6976,42.1345 -89.0523,41.9732 -88.7167,41.9454 -87.2288,42.066 -84.6248,42.331 -82.3184,42.6739 -79.984,43.1391 -77.683,43.7505 -75.4382,44.4668 -72.9109,45.28 -71.1336,45.9198 -70.5595,46.4304 -70.2244,47.1219 -70.1795,47.8889 -70.4316,48.6148 -70.9423,49.1889 -71.6338,49.5239 -72.4008,49.5688 -72.7887,49.515 -74.1919,48.9695 Z" stroke-width="1" transform="scale(2.5937424601)"/></g><g transform="matrix(0.9877, -0.1564, 0.1564, 0.9877, 14.1034, 735.7017) scale(0.38554328942953175, 0.38554328942953175)" opacity="1"><path d="M31.4239,18.7827 Q32.8278,18.7616 33.8249,18.6158 T35.9251,18.2299 38.1192,17.6226 40.4821,16.7051 43.037,15.5292 45.3803,14.341 47.1651,13.389 48.2078,12.8888 48.8628,12.7747 49.52,12.8758 50.1105,13.1814 50.5725,13.6595 50.8576,14.2602 50.9361,14.9204 50.7996,15.5712 50.4624,16.1442 49.9599,16.5796 49.3447,16.8318 48.6812,16.8744 48.0388,16.7028 47.4849,16.3351 47.0773,15.8097 46.8588,15.1818 46.8523,14.5169 47.0584,13.8848 47.4556,13.3515 48.0023,12.9731 48.6412,12.7889 49.3054,12.8185 49.9255,13.0586 50.4364,13.484 50.7847,14.0504 50.9339,14.6983 50.8684,15.36 50.5951,15.9661 50.1425,16.4532 49.8766,16.6595 49.1307,17.0685 47.2667,18.0429 44.7844,19.2597 41.9942,20.5073 39.2331,21.5085 36.6207,22.1435 34.1732,22.4832 31.6025,22.6996 29.8159,22.7474 29.095,22.4866 28.5289,21.9697 28.2036,21.2755 28.1687,20.5097 28.4296,19.7888 28.9465,19.2226 29.6408,18.8974 30.0201,18.8038 31.4239,18.7827 Z" stroke-width="1" transform="scale(2.5937424601)"/></g><g transform="matrix(1, 0, 0, 1, 78.4935, 786.7144) scale(0.38554328942953175, 0.38554328942953175)" opacity="1"><path d="M-3.2904,-25.365 Q-1.8774,-24.6553 -0.8624,-24.4335 T0.0173,-26.2644 -0.5274,-29.7045 -1.4444,-32.6245 -2.5194,-35.722 -3.6729,-38.7789 -4.8166,-41.5908 -5.8512,-43.9626 -6.7737,-45.9663 -7.287,-47.1751 -7.3369,-47.6974 -7.2173,-48.2083 -6.9409,-48.6543 -6.5366,-48.9887 -6.0466,-49.1764 -5.5224,-49.1979 -5.0187,-49.0508 -4.5884,-48.7506 -4.2764,-48.3288 -4.1155,-47.8293 -4.1225,-47.3047 -4.2966,-46.8098 -4.6197,-46.3963 -5.0578,-46.1077 -5.5652,-45.9741 -6.0887,-46.0095 -6.5735,-46.2102 -6.9688,-46.5551 -7.2333,-47.0083 -7.3392,-47.5222 -7.2755,-48.043 -7.0488,-48.5162 -6.6829,-48.8922 -6.2161,-49.1318 -5.6972,-49.2097 -5.1806,-49.1179 -4.7204,-48.8659 -4.3647,-48.4801 -4.2186,-48.2583 -3.8015,-47.2789 -2.9315,-45.2212 -1.9068,-42.8088 -0.6908,-39.9781 0.6175,-36.9128 1.9078,-33.7871 3.0613,-30.7618 3.9559,-27.9646 4.4391,-25.4321 3.5316,-22.5803 0.9622,-20.756 -1.9777,-20.9991 -4.8285,-22.0367 -6.5826,-22.8711 -7.0713,-23.4012 -7.3199,-24.078 -7.2906,-24.7985 -6.9879,-25.4528 -6.4578,-25.9415 -5.781,-26.1901 -5.0605,-26.1608 -4.7033,-26.0746 -3.2904,-25.365 Z" stroke-width="1" transform="scale(2.5937424601)"/></g><g transform="matrix(0.9781, 0.2079, -0.2079, 0.9781, 78.728, 761.995) scale(0.38554328942953175, 0.38554328942953175)" opacity="1"><path d="M5.5186,-12.0598 Q5.9124,-13.4964 6.0815,-14.5446 T6.3766,-16.7112 6.5279,-18.884 6.4907,-21.1001 6.313,-23.4077 5.9794,-26.1223 5.768,-28.0353 5.8924,-28.7035 6.2237,-29.2969 6.7272,-29.7536 7.35,-30.0255 8.0271,-30.0844 8.6876,-29.9239 9.2622,-29.561 9.6909,-29.0335 9.9287,-28.3968 9.9508,-27.7175 9.7548,-27.0667 9.3612,-26.5126 8.8113,-26.1131 8.1627,-25.9102 7.4832,-25.925 6.844,-26.1559 6.312,-26.5789 5.9429,-27.1497 5.7754,-27.8084 5.827,-28.4861 6.0923,-29.1118 6.5435,-29.6201 7.1334,-29.9577 7.8002,-30.0893 8.4741,-30.0011 9.0846,-29.7022 9.5676,-29.2242 9.8728,-28.6168 9.9755,-28.2885 10.0671,-27.6248 10.2635,-25.963 10.4655,-23.7301 10.6015,-21.1828 10.5657,-18.6206 10.3064,-16.1398 9.8803,-13.765 9.3516,-11.1591 8.9008,-9.3381 8.4486,-8.7094 7.7903,-8.3017 7.0261,-8.1769 6.2723,-8.3541 5.6437,-8.8062 5.236,-9.4645 5.1112,-10.2288 5.1248,-10.6232 5.5186,-12.0598 Z" stroke-width="1" transform="scale(2.5937424601)"/></g><g transform="matrix(0.9781, 0.2079, -0.2079, 0.9781, 77.155, 760.632) scale(0.38554328942953175, 0.38554328942953175)" opacity="1"><path d="M7.8582,-11.2759 Q8.513,-12.3873 9.1532,-13.3589 T10.6379,-15.3571 12.5886,-17.4189 15.0971,-19.5227 17.9587,-21.6052 20.6616,-23.4527 22.7782,-24.8307 23.9514,-25.5044 24.5773,-25.6601 25.2202,-25.6078 25.8127,-25.3529 26.2928,-24.9222 26.6102,-24.3607 26.7318,-23.7273 26.6447,-23.0882 26.3581,-22.5104 25.902,-22.0543 25.3241,-21.7678 24.685,-21.6807 24.0516,-21.8023 23.4902,-22.1198 23.0595,-22.6 22.8047,-23.1925 22.7524,-23.8354 22.9082,-24.4613 23.2556,-25.0047 23.7584,-25.4087 24.3639,-25.631 25.0086,-25.6484 25.6252,-25.4589 26.149,-25.0826 26.5251,-24.5586 26.7143,-23.942 26.6967,-23.2972 26.4741,-22.6919 26.0699,-22.1893 25.8268,-21.9712 24.4177,-21.055 21.6662,-19.2308 18.9469,-17.3207 16.4552,-15.4153 14.5169,-13.6809 12.7818,-11.6789 11.2664,-9.3692 10.4114,-7.9358 9.8162,-7.466 9.0864,-7.2598 8.3333,-7.3485 7.6715,-7.7187 7.2017,-8.314 6.9955,-9.0438 7.0843,-9.7969 7.2035,-10.1645 7.8582,-11.2759 Z" stroke-width="1" transform="scale(2.5937424601)"/></g><g transform="matrix(0.9781, 0.2079, -0.2079, 0.9781, 184.5428, 719.4104) scale(0.38554328942953175, 0.38554328942953175)" opacity="1"><path d="M-76.0298,50.1457 Q-77.4669,49.5831 -78.5337,49.2759 T-80.7237,48.6805 -82.8957,48.1884 -85.0621,47.8308 -87.2606,47.5667 -89.8057,47.3232 -91.5958,47.1097 -92.2047,46.8488 -92.6984,46.4071 -93.0253,45.831 -93.151,45.1806 -93.0625,44.5241 -92.769,43.9302 -92.3013,43.4612 -91.7082,43.166 -91.052,43.0757 -90.4013,43.1997 -89.8242,43.5249 -89.3812,44.0174 -89.1186,44.6256 -89.064,45.2857 -89.223,45.9288 -89.579,46.4874 -90.0948,46.9031 -90.7163,47.1323 -91.3785,47.1511 -92.012,46.9574 -92.5505,46.5716 -92.9376,46.0341 -93.1328,45.4011 -93.1156,44.7389 -92.8879,44.1168 -92.4735,43.6 -91.9158,43.2426 -91.2732,43.082 -90.939,43.0543 -89.4146,43.1768 -86.7471,43.4467 -84.3854,43.7969 -81.9957,44.2722 -79.6399,44.8973 -77.3407,45.6301 -74.7499,46.4595 -72.9348,47.1071 -72.3597,47.6186 -72.0241,48.3112 -71.9791,49.0796 -72.2316,49.8066 -72.7431,50.3817 -73.4358,50.7173 -74.2041,50.7622 -74.5926,50.7083 -76.0298,50.1457 Z" stroke-width="1" transform="scale(2.5937424601)"/></g><g transform="matrix(0.9781, 0.2079, -0.2079, 0.9781, 60.3841, 717.3062) scale(0.38554328942953175, 0.38554328942953175)" opacity="1"><path d="M32.2123,19.3174 Q33.6514,19.2973 34.6762,19.147 T36.8344,18.7498 39.0897,18.1252 41.5178,17.1828 44.1403,15.9762 46.5441,14.7573 48.3747,13.7812 49.4339,13.272 50.0847,13.1586 50.7377,13.259 51.3244,13.5626 51.7834,14.0377 52.0667,14.6345 52.1447,15.2905 52.009,15.937 51.6741,16.5064 51.1748,16.939 50.5636,17.1896 49.9043,17.2319 49.2661,17.0614 48.7157,16.6961 48.3107,16.1741 48.0937,15.5502 48.0872,14.8896 48.292,14.2615 48.6866,13.7317 49.2298,13.3557 49.8645,13.1727 50.5245,13.2021 51.1406,13.4406 51.6482,13.8634 51.9942,14.4261 52.1425,15.0698 52.0775,15.7272 51.8059,16.3295 51.3562,16.8134 51.092,17.0184 50.328,17.4376 48.4186,18.436 45.8762,19.6822 43.0199,20.9597 40.1959,21.9839 37.5246,22.6327 35.0214,22.9793 32.3894,23.2017 30.5706,23.2541 29.8547,22.995 29.2924,22.4817 28.9693,21.7923 28.9347,21.0317 29.1938,20.3158 29.7072,19.7536 30.3966,19.4306 30.7734,19.3376 32.2123,19.3174 Z" stroke-width="1" transform="scale(2.5937424601)"/></g></svg>