<svg xmlns="http://www.w3.org/2000/svg" direction="ltr" width="96.9380868638898" height="94.31390263514606" viewBox="1031.469265485283 545.3265893943633 96.9380868638898 94.31390263514606" stroke-linecap="round" stroke-linejoin="round" data-color-mode="dark" class="tl-container tl-theme__force-sRGB tl-theme__dark" style="background-color: transparent;"><defs/><g transform="matrix(1, 0, 0, 1, 1057.4437, 624.9149) scale(0.38554328942953175, 0.38554328942953175)" opacity="1"><path d="M10.7022,-19.3632 Q11.1716,-21.0062 11.4885,-22.6801 T12.1047,-26.2744 12.5107,-29.1644 12.687,-32.0032 12.7299,-34.876 12.6455,-36.9113 12.5057,-38.9619 12.3246,-40.9465 12.0132,-43.5299 11.6538,-46.2352 11.5136,-47.6286 11.6241,-48.2215 11.918,-48.7482 12.3648,-49.1534 12.9175,-49.3947 13.5184,-49.4469 14.1045,-49.3045 14.6144,-48.9825 14.9948,-48.5144 15.2058,-47.9494 15.2254,-47.3466 15.0515,-46.7691 14.7022,-46.2773 14.2143,-45.9228 13.6387,-45.7427 13.0357,-45.7559 12.4684,-45.9608 11.9963,-46.3362 11.6688,-46.8427 11.5202,-47.4272 11.566,-48.0286 11.8014,-48.5839 12.2018,-49.035 12.7252,-49.3345 13.317,-49.4513 13.915,-49.373 14.4567,-49.1078 14.8854,-48.6836 15.1562,-48.1446 15.2474,-47.8533 15.4129,-46.7391 15.7594,-43.9519 16.0357,-41.2782 16.2153,-39.2148 16.3614,-37.0632 16.4496,-34.8925 16.4534,-32.7736 16.353,-30.7247 16.1517,-28.6831 15.8702,-26.6331 15.5311,-24.6314 14.9599,-21.9139 14.2307,-18.5032 13.7365,-16.4955 13.3109,-15.914 12.6952,-15.5396 11.9832,-15.4294 11.2831,-15.6001 10.7017,-16.0256 10.3273,-16.6413 10.2171,-17.3534 10.2328,-17.7203 10.7022,-19.3632 Z" stroke-width="1" stroke="#f2f2f2" fill="#f2f2f2" transform="scale(2.5937424601)"/></g><g transform="matrix(1, 0, 0, 1, 1054.3459, 623.2042) scale(0.38554328942953175, 0.38554328942953175)" opacity="1"><path d="M14.2489,-17.7899 Q14.9667,-19.0586 15.8403,-20.4804 T17.2831,-22.6968 18.5131,-24.3181 19.9263,-25.9808 21.5221,-27.6398 23.3568,-29.3005 25.4879,-31.0045 27.855,-32.7441 30.3364,-34.4765 32.8113,-36.1548 35.1589,-37.7249 37.2603,-39.1266 39.6816,-40.7496 41.388,-41.8321 41.9286,-41.9643 42.4832,-41.9169 42.9936,-41.6949 43.4064,-41.3216 43.6784,-40.836 43.7811,-40.289 43.7037,-39.7378 43.4544,-39.2401 43.0592,-38.8482 42.5596,-38.6029 42.0078,-38.53 41.4616,-38.6372 40.9782,-38.9131 40.6083,-39.3289 40.3904,-39.8411 40.3476,-40.396 40.4841,-40.9356 40.7858,-41.4033 41.2211,-41.7502 41.7443,-41.9399 42.3008,-41.9527 42.8321,-41.7871 43.2828,-41.4605 43.6056,-41.0071 43.7667,-40.4743 43.7493,-39.918 43.5552,-39.3964 43.2046,-38.9641 42.9941,-38.7768 41.5262,-37.8857 39.0851,-36.3695 37.004,-35.0007 34.7131,-33.4276 32.3336,-31.72 29.9844,-29.9542 27.7849,-28.2133 25.8531,-26.5845 24.2144,-25.064 22.7784,-23.5581 20.9552,-21.3207 18.9835,-18.6006 17.4989,-16.0549 16.6121,-14.4693 16.0568,-14.0131 15.3692,-13.8041 14.6539,-13.8742 14.02,-14.2126 13.5638,-14.768 13.3548,-15.4556 13.4249,-16.1708 13.5311,-16.5214 14.2489,-17.7899 Z" stroke-width="1" stroke="#f2f2f2" fill="#f2f2f2" transform="scale(2.5937424601)"/></g><g transform="matrix(1, 0, 0, 1, 1218.365, 516.6904) scale(0.38554328942953175, 0.38554328942953175)" opacity="1"><path d="M-127.9705,84.0919 Q-129.6164,83.4313 -131.3072,82.9073 T-133.9454,82.1001 -135.8633,81.5419 -137.7946,81.0177 -140.5852,80.39 -143.3767,79.8575 -145.3157,79.5685 -147.2513,79.3195 -149.9283,79.0437 -153.3432,78.7555 -155.3407,78.5561 -155.9048,78.3177 -156.3632,77.9117 -156.6679,77.3805 -156.7871,76.7799 -156.7083,76.1726 -156.4397,75.6223 -156.0094,75.1866 -155.4626,74.9111 -154.8563,74.8246 -154.2542,74.9362 -153.7193,75.2343 -153.3075,75.6875 -153.0621,76.2485 -153.0086,76.8585 -153.1526,77.4537 -153.4792,77.9717 -153.9541,78.3583 -154.5276,78.573 -155.1396,78.5934 -155.7261,78.4172 -156.2256,78.0631 -156.5859,77.5679 -156.7693,76.9836 -156.7564,76.3714 -156.5488,75.7953 -156.1681,75.3157 -155.6541,74.9828 -155.0608,74.8314 -154.752,74.8043 -153.0166,74.9522 -149.517,75.2974 -146.7632,75.6201 -144.7549,75.892 -142.7213,76.2089 -140.7287,76.5772 -138.785,77.0089 -136.8223,77.5134 -134.8289,78.0785 -132.8663,78.6791 -130.1842,79.5812 -126.7719,80.6964 -124.7615,81.4022 -124.2276,81.8819 -123.918,82.5294 -123.8797,83.2462 -124.1187,83.923 -124.5984,84.4568 -125.246,84.7664 -125.9627,84.8046 -126.3248,84.7525 -127.9705,84.0919 Z" stroke-width="1" stroke="#f2f2f2" fill="#f2f2f2" transform="scale(2.5937424601)"/></g><g transform="matrix(1, 0, 0, 1, 1011.14, 557.0799) scale(0.38554328942953175, 0.38554328942953175)" opacity="1"><path d="M54.0547,34.3868 Q55.6948,34.3915 57.344,34.217 T60.9371,33.7336 63.8851,33.2007 65.8746,32.697 67.8831,32.0586 70.029,31.2557 72.3237,30.3064 74.6633,29.2631 76.9444,28.1808 79.0685,27.1168 80.9402,26.1316 83.0519,24.9487 84.5832,24.1317 85.1614,24.0281 85.7424,24.1145 86.2654,24.3819 86.6756,24.8023 86.9301,25.3317 87.0023,25.9146 86.8845,26.4901 86.5892,26.9978 86.1471,27.3846 85.6048,27.6101 85.0188,27.6505 84.4505,27.5018 83.9596,27.1793 83.5972,26.717 83.4015,26.1632 83.3929,25.5759 83.5722,25.0166 83.9208,24.5438 84.4021,24.207 84.9657,24.0416 85.5526,24.0648 86.1014,24.2742 86.5546,24.6479 86.8647,25.1467 86.9994,25.7184 86.9444,26.3032 86.7056,26.8399 86.3079,27.2722 86.0739,27.4556 84.7619,28.1294 82.5606,29.2578 80.6365,30.2379 78.4646,31.3306 76.1321,32.474 73.7229,33.6034 71.3163,34.6519 68.9908,35.5496 66.771,36.2571 64.5954,36.802 62.4441,37.2222 60.3695,37.5313 57.5827,37.7861 54.1708,38.022 52.1733,38.0714 51.5017,37.8181 50.9783,37.3269 50.6826,36.6729 50.6597,35.9555 50.9131,35.2839 51.4043,34.7604 52.0583,34.4648 52.4147,34.382 54.0547,34.3868 Z" stroke-width="1" stroke="#f2f2f2" fill="#f2f2f2" transform="scale(2.5937424601)"/></g></svg>